# xmcd
#
# Track frame offsets: 
#        215
#        11290
#        20842
#        30142
#        41890
#        53035
#        62367
#        74647
#        85137
#        97127
#        108417
#        119522
#        128942
#        139877
#
# Disc length: 2001 seconds
#
# Revision: 3
# Processed by: cddbd v1.5.2PL0 Copyright (c) Steve Scherf et al.
# Submitted via: ExactAudioCopy v1.1
#
DISCID=c107cf0e
DTITLE=Buck Owens - Buck Owens (1961)
DYEAR=1995
DGENRE=Country
TTITLE0=Above And Beyond
TTITLE1=Second Fiddle
TTITLE2=Tired Of Livin'
TTITLE3=I Gotta Right To Know
TTITLE4=Excuse Me (I Think I've Got A Heartache)
TTITLE5=I'll Give My Heart To You
TTITLE6=Under Your Spell Again
TTITLE7=My Everlasing Love
TTITLE8=Take Me Back Again
TTITLE9='Til These Dreams Come True
TTITLE10=Walk The Floors
TTITLE11=I'll Take A Chance On Loving You
TTITLE12=High As The Mountains
TTITLE13=Nobody's Fool But Yours (Early Version)
EXTD=
EXTT0=
EXTT1=
EXTT2=
EXTT3=
EXTT4=
EXTT5=
EXTT6=
EXTT7=
EXTT8=
EXTT9=
EXTT10=
EXTT11=
EXTT12=
EXTT13=
PLAYORDER=
